<svg width="64" height="64" viewBox="0 0 64 64" fill="none" xmlns="http://www.w3.org/2000/svg">
<path d="M16.875 2.61255C13.0625 4.03755 9.625 5.36255 9.25 5.56255C8.2375 6.07505 7.125 7.25005 6.6 8.37505C6.0125 9.61255 0 27.7126 0 28.25C0 29.375 0.9375 30.7126 1.9375 30.9876C2.2 31.0501 4.7875 31.3 7.7 31.5126L13 31.9251V46.125C13 58.5375 13.025 60.35 13.1875 60.5875C13.575 61.1375 18.5625 62.5625 22.2875 63.175C25.925 63.7875 27.7625 63.925 32.0625 63.925C36.3625 63.925 38.3875 63.7625 41.875 63.175C45.5 62.5625 50.4375 61.125 50.8125 60.5875C50.975 60.35 51 58.625 51 46.125V31.9376L56.2875 31.5251C59.1875 31.3001 61.7875 31.0626 62.0625 30.9876C63.0625 30.7126 64 29.3876 64 28.2376C64 28.0126 62.5625 23.5126 60.8125 18.2501C58.4625 11.2126 57.5 8.47505 57.15 7.88755C56.5875 6.93755 55.5875 5.98755 54.6375 5.51255C54.25 5.31255 50.8375 4.00005 47.05 2.57505L40.175 5.34058e-05H31.9875H23.8125L16.875 2.61255ZM38.875 2.25005C38.875 2.61255 38.3375 4.01255 37.95 4.68755C37.125 6.10005 35.2875 7.41255 33.6125 7.81255C31.3 8.35005 28.8125 7.66255 27.125 5.98755C26.3 5.17505 25.8375 4.43755 25.4125 3.28755C24.8875 1.85005 24.1125 2.00005 32 2.00005C38.7375 2.00005 38.875 2.00005 38.875 2.25005ZM23.3 3.25005C23.4125 3.70005 23.7375 4.53755 24.025 5.12505C24.45 5.97505 24.775 6.40005 25.625 7.25005C26.825 8.45005 27.85 9.10005 29.3125 9.58755C30.2 9.88755 30.5 9.92505 32 9.92505C33.5 9.92505 33.8 9.88755 34.6875 9.58755C36.15 9.10005 37.175 8.45005 38.375 7.25005C39.225 6.40005 39.55 5.97505 39.975 5.12505C40.2625 4.53755 40.5875 3.68755 40.7 3.23755L40.9 2.41255L41.8 2.75005C42.3125 2.95005 42.7 3.17505 42.725 3.28755C42.8 3.65005 42.025 5.63755 41.4125 6.65005C38.6125 11.3376 32.6625 13.2626 27.6625 11.1001C24.8625 9.87505 22.6 7.43755 21.6 4.56255C21.4 3.97505 21.25 3.40005 21.275 3.28755C21.3 3.17505 21.675 2.95005 22.1875 2.75005C22.675 2.56255 23.075 2.42505 23.075 2.42505C23.0875 2.43755 23.1875 2.80005 23.3 3.25005ZM19.6 4.85005C20.8 8.81255 23.9 11.9751 27.8875 13.3001C29.5875 13.8626 30.9375 14.0501 32.675 13.9626C35.05 13.8376 37.225 13.125 39.175 11.8251C41.6375 10.1875 43.525 7.67505 44.3875 4.87505C44.55 4.36255 44.6875 3.91255 44.7 3.90005C44.7625 3.81255 53.575 7.17505 54 7.43755C54.5625 7.78755 55.3 8.61255 55.6 9.21255C55.7375 9.47505 57.2375 13.8626 58.9375 18.9751C61.0875 25.4251 62 28.35 61.95 28.5625C61.9125 28.725 61.7625 28.925 61.6375 29C61.425 29.1 52.45 29.875 51.375 29.875H51V26.25V22.6126L50.6875 22.3125C50.2875 21.9001 49.7125 21.9001 49.3125 22.3125L49 22.6126V40.975V59.3375L47.725 59.725C44.625 60.675 41.5 61.3 37.85 61.7125C35.175 62.0125 28.825 62.0125 26.15 61.7125C22.525 61.3 19.6875 60.7375 16.5375 59.8L15 59.3375V40.975V22.6126L14.675 22.2876C14.4125 22.0251 14.275 21.9876 13.9 22.0501C13 22.1876 13 22.2126 13 26.2626V29.875H12.6625C11.6125 29.875 2.5625 29.1 2.3625 29C2.2375 28.925 2.0875 28.725 2.05 28.5625C2 28.35 2.9125 25.4251 5.0625 18.9751C6.7625 13.8626 8.2625 9.47505 8.4 9.21255C8.7375 8.53755 9.575 7.65005 10.1875 7.33755C10.6875 7.07505 18.95 3.91256 19.1875 3.88755C19.2625 3.88755 19.45 4.31255 19.6 4.85005Z" fill="#CCCCCC"/>
</svg>
